<svg width="960" height="300" viewBox="0 0 960 300" xmlns="http://www.w3.org/2000/svg">
  <defs>
    <linearGradient id="badge" x1="30" y1="30" x2="270" y2="270" gradientUnits="userSpaceOnUse">
      <stop stop-color="#071225"/>
      <stop offset="1" stop-color="#101B34"/>
    </linearGradient>
    <linearGradient id="face" x1="92" y1="70" x2="210" y2="230" gradientUnits="userSpaceOnUse">
      <stop stop-color="#FFF8D8"/>
      <stop offset="1" stop-color="#FFD85A"/>
    </linearGradient>
    <linearGradient id="green" x1="78" y1="154" x2="220" y2="278" gradientUnits="userSpaceOnUse">
      <stop stop-color="#50DA86"/>
      <stop offset="1" stop-color="#16894B"/>
    </linearGradient>
  </defs>
  <rect x="18" y="18" width="264" height="264" rx="54" fill="url(#badge)"/>
  <path d="M76 218C88 178 116 156 150 156C184 156 212 178 224 218C204 242 180 254 150 254C120 254 96 242 76 218Z" fill="url(#green)"/>
  <path d="M94 108L150 28L206 108H94Z" fill="#FF4478"/>
  <ellipse cx="150" cy="108" rx="62" ry="14" fill="#FF6A9B"/>
  <circle cx="150" cy="50" r="10" fill="#FFD24A"/>
  <circle cx="132" cy="80" r="7" fill="#FFD24A"/>
  <circle cx="168" cy="81" r="7" fill="#FFD24A"/>
  <ellipse cx="150" cy="138" rx="72" ry="67" fill="url(#face)"/>
  <path d="M99 130L108 110L117 130L137 139L117 148L108 168L99 148L79 139Z" fill="#FFD24A"/>
  <path d="M201 130L192 110L183 130L163 139L183 148L192 168L201 148L221 139Z" fill="#FF8C30"/>
  <circle cx="114" cy="140" r="25" fill="#FFFFFF" stroke="#0F1928" stroke-width="6"/>
  <circle cx="186" cy="140" r="25" fill="#FFFFFF" stroke="#0F1928" stroke-width="6"/>
  <circle cx="114" cy="140" r="10" fill="#0F1928"/>
  <circle cx="186" cy="140" r="10" fill="#0F1928"/>
  <path d="M124 169C137 162 163 162 176 169C171 185 161 195 150 195C139 195 129 185 124 169Z" fill="#F5963A"/>
  <circle cx="150" cy="165" r="18" fill="#E50914"/>
  <path d="M123 206C138 218 162 218 177 206" fill="none" stroke="#0F1928" stroke-width="9" stroke-linecap="round"/>
  <text x="330" y="136" font-family="system-ui, -apple-system, BlinkMacSystemFont, 'Segoe UI', sans-serif" font-size="88" font-weight="900" fill="#0F1928">껄껄무새</text>
  <text x="336" y="196" font-family="system-ui, -apple-system, BlinkMacSystemFont, 'Segoe UI', sans-serif" font-size="32" font-weight="800" fill="#18A78F">주식 기회비용 계산기</text>
  <text x="338" y="238" font-family="system-ui, -apple-system, BlinkMacSystemFont, 'Segoe UI', sans-serif" font-size="24" font-weight="700" fill="#6B7FA0">매도했더니 오르고, 갈아탔더니 떨어질 때</text>
</svg>
