<svg width="960" height="300" viewBox="0 0 960 300" xmlns="http://www.w3.org/2000/svg" role="img" aria-labelledby="title desc">
  <title id="title">껄껄무새 로고</title>
  <desc id="desc">붉은 머리의 광대 무새 마스코트와 껄껄무새 워드마크</desc>
  <defs>
    <radialGradient id="badge" cx="46%" cy="24%" r="82%">
      <stop offset="0" stop-color="#351737"/>
      <stop offset="0.58" stop-color="#111827"/>
      <stop offset="1" stop-color="#060912"/>
    </radialGradient>
    <radialGradient id="hair" cx="50%" cy="44%" r="72%">
      <stop offset="0" stop-color="#FF6475"/>
      <stop offset="0.48" stop-color="#C9162F"/>
      <stop offset="1" stop-color="#6A0615"/>
    </radialGradient>
    <radialGradient id="face" cx="42%" cy="23%" r="78%">
      <stop offset="0" stop-color="#FFFFFF"/>
      <stop offset="0.58" stop-color="#F6EED8"/>
      <stop offset="1" stop-color="#D6C5A8"/>
    </radialGradient>
    <linearGradient id="suit" x1="80" y1="184" x2="222" y2="284" gradientUnits="userSpaceOnUse">
      <stop stop-color="#2FD074"/>
      <stop offset="0.48" stop-color="#25346D"/>
      <stop offset="1" stop-color="#7C3AED"/>
    </linearGradient>
    <linearGradient id="word-bg" x1="312" y1="64" x2="925" y2="236" gradientUnits="userSpaceOnUse">
      <stop stop-color="#0A1020"/>
      <stop offset="1" stop-color="#151B2E"/>
    </linearGradient>
    <filter id="drop" x="-18%" y="-22%" width="136%" height="144%">
      <feDropShadow dx="0" dy="10" stdDeviation="8" flood-color="#020617" flood-opacity="0.32"/>
    </filter>
  </defs>

  <rect x="18" y="18" width="264" height="264" rx="44" fill="url(#badge)"/>
  <path d="M39 225C68 206 101 199 148 205C196 211 234 199 266 174V282H39Z" fill="#0F4A3B" opacity="0.82"/>
  <g filter="url(#drop)">
    <path d="M86 186C96 160 119 146 150 146C181 146 203 160 214 186L236 282H64Z" fill="url(#suit)"/>
    <path d="M78 172C96 145 123 137 150 154C177 137 204 145 222 172C204 193 176 195 150 176C124 195 96 193 78 172Z" fill="#F8FAFC"/>
    <path d="M88 166C107 180 127 180 150 164C173 180 193 180 212 166" fill="none" stroke="#C4B59B" stroke-width="4" stroke-linecap="round" opacity="0.55"/>
    <ellipse cx="93" cy="105" rx="47" ry="60" fill="url(#hair)" transform="rotate(-18 93 105)"/>
    <ellipse cx="207" cy="105" rx="47" ry="60" fill="url(#hair)" transform="rotate(18 207 105)"/>
    <path d="M100 66C119 28 181 28 200 66C178 55 122 55 100 66Z" fill="url(#hair)"/>
    <ellipse cx="150" cy="105" rx="64" ry="72" fill="url(#face)"/>
    <path d="M117 80C130 66 142 70 150 88C158 70 170 66 183 80" fill="none" stroke="#1F2937" stroke-width="4" stroke-linecap="round"/>
    <path d="M111 99C122 88 137 88 144 104" fill="none" stroke="#111827" stroke-width="5" stroke-linecap="round"/>
    <path d="M189 99C178 88 163 88 156 104" fill="none" stroke="#111827" stroke-width="5" stroke-linecap="round"/>
    <circle cx="128" cy="105" r="6" fill="#020617"/>
    <circle cx="172" cy="105" r="6" fill="#020617"/>
    <path d="M124 123C113 138 107 154 104 169" stroke="#C9162F" stroke-width="5" stroke-linecap="round"/>
    <path d="M176 123C187 138 193 154 196 169" stroke="#C9162F" stroke-width="5" stroke-linecap="round"/>
    <circle cx="150" cy="124" r="17" fill="#C9162F"/>
    <circle cx="143" cy="118" r="5" fill="#FFB4BF" opacity="0.8"/>
    <path d="M122 149C139 165 161 165 178 149" fill="none" stroke="#67111D" stroke-width="7" stroke-linecap="round"/>
    <path d="M132 146C144 154 156 154 168 146" fill="none" stroke="#FFF7ED" stroke-width="4" stroke-linecap="round"/>
  </g>

  <rect x="316" y="46" width="590" height="196" rx="24" fill="url(#word-bg)" opacity="0.96"/>
  <path d="M316 79H906" stroke="#FACC15" stroke-width="3" opacity="0.35"/>
  <text x="354" y="146" font-family="system-ui, -apple-system, BlinkMacSystemFont, 'Segoe UI', sans-serif" font-size="82" font-weight="900" fill="#FFF7ED">껄껄무새</text>
  <text x="358" y="194" font-family="system-ui, -apple-system, BlinkMacSystemFont, 'Segoe UI', sans-serif" font-size="31" font-weight="800" fill="#FACC15">주식 기회비용 계산기</text>
  <text x="358" y="230" font-family="system-ui, -apple-system, BlinkMacSystemFont, 'Segoe UI', sans-serif" font-size="22" font-weight="700" fill="#94A3B8">매도했더니 오르고, 갈아탔더니 웃픈 순간</text>
</svg>