<svg width="120" height="120" viewBox="0 0 120 120" fill="none" xmlns="http://www.w3.org/2000/svg">
  <!-- bg -->
  <rect width="120" height="120" rx="28" fill="#FFE173"/>
  <!-- face -->
  <ellipse cx="60" cy="56" rx="40" ry="38" fill="#FFF6C0"/>
  <!-- rosy cheeks -->
  <ellipse cx="28" cy="64" rx="10" ry="7" fill="#FF8A65" opacity="0.45"/>
  <ellipse cx="92" cy="64" rx="10" ry="7" fill="#FF8A65" opacity="0.45"/>
  <!-- squinted laughing eyes -->
  <path d="M36 46 Q44 36 54 46" stroke="#1F2A39" stroke-width="4" stroke-linecap="round" fill="none"/>
  <path d="M66 46 Q76 36 84 46" stroke="#1F2A39" stroke-width="4" stroke-linecap="round" fill="none"/>
  <!-- laugh tears -->
  <path d="M32 52 C28 58 29 66 32 70" stroke="#60B4F7" stroke-width="3.5" stroke-linecap="round" fill="none"/>
  <path d="M88 52 C92 58 91 66 88 70" stroke="#60B4F7" stroke-width="3.5" stroke-linecap="round" fill="none"/>
  <!-- big open laughing beak -->
  <path d="M42 66 Q60 56 78 66 Q60 86 42 66Z" fill="#FF7A33"/>
  <path d="M42 66 Q60 78 78 66" fill="#BF360C" opacity="0.55"/>
  <!-- teeth -->
  <rect x="49" y="66" width="8" height="6" rx="2" fill="white"/>
  <rect x="59" y="66" width="8" height="6" rx="2" fill="white"/>
  <!-- body -->
  <ellipse cx="60" cy="104" rx="30" ry="16" fill="#FFC107"/>
  <!-- wings (laughing gesture) -->
  <path d="M22 78 Q8 60 16 46 Q30 62 28 80Z" fill="#FFB300"/>
  <path d="M98 78 Q112 60 104 46 Q90 62 92 80Z" fill="#FFB300"/>
  <!-- crest feathers -->
  <path d="M48 18 Q52 6 60 14 Q68 6 72 18" stroke="#E65100" stroke-width="3" stroke-linecap="round" fill="none"/>
</svg>
