<svg xmlns="http://www.w3.org/2000/svg" viewBox="0 0 220 220" width="220" height="220">
  <defs>
    <radialGradient id="bg" cx="50%" cy="18%" r="84%">
      <stop offset="0" stop-color="#1D4ED8"/>
      <stop offset="0.58" stop-color="#0F172A"/>
      <stop offset="1" stop-color="#070A12"/>
    </radialGradient>
    <radialGradient id="hair" cx="50%" cy="44%" r="70%">
      <stop offset="0" stop-color="#FF7686"/>
      <stop offset="0.5" stop-color="#C5162E"/>
      <stop offset="1" stop-color="#650713"/>
    </radialGradient>
    <radialGradient id="face" cx="40%" cy="22%" r="76%">
      <stop offset="0" stop-color="#FFFFFF"/>
      <stop offset="0.6" stop-color="#EAF6FF"/>
      <stop offset="1" stop-color="#BCD0E6"/>
    </radialGradient>
    <linearGradient id="suit" x1="58" y1="142" x2="166" y2="214" gradientUnits="userSpaceOnUse">
      <stop stop-color="#38BDF8"/>
      <stop offset="0.5" stop-color="#1E3A8A"/>
      <stop offset="1" stop-color="#6D28D9"/>
    </linearGradient>
    <filter id="shadow" x="-25%" y="-25%" width="150%" height="150%">
      <feDropShadow dx="0" dy="7" stdDeviation="5" flood-color="#020617" flood-opacity="0.38"/>
    </filter>
  </defs>
  <rect width="220" height="220" rx="44" fill="url(#bg)"/>
  <path d="M21 184C46 168 78 162 110 168C148 176 180 164 200 146V220H21Z" fill="#082F49" opacity="0.86"/>
  <path d="M37 40C31 31 32 23 40 17" stroke="#93C5FD" stroke-width="4" stroke-linecap="round" fill="none" opacity="0.8"/>
  <path d="M184 40C190 31 188 23 180 17" stroke="#93C5FD" stroke-width="4" stroke-linecap="round" fill="none" opacity="0.8"/>
  <g filter="url(#shadow)">
    <path d="M58 148C68 129 86 120 110 120C135 120 153 130 163 149L180 214H41Z" fill="url(#suit)"/>
    <path d="M55 140C70 119 91 114 110 126C130 114 151 119 166 140C151 157 129 158 110 143C91 158 70 157 55 140Z" fill="#F8FAFC"/>
    <ellipse cx="61" cy="85" rx="37" ry="47" fill="url(#hair)" transform="rotate(-19 61 85)"/>
    <ellipse cx="159" cy="85" rx="37" ry="47" fill="url(#hair)" transform="rotate(19 159 85)"/>
    <path d="M71 52C87 21 133 21 149 52C132 44 88 44 71 52Z" fill="url(#hair)"/>
    <ellipse cx="110" cy="84" rx="51" ry="59" fill="url(#face)"/>
    <path d="M80 64C91 55 101 57 108 69" fill="none" stroke="#1F2937" stroke-width="4" stroke-linecap="round"/>
    <path d="M140 64C129 55 119 57 112 69" fill="none" stroke="#1F2937" stroke-width="4" stroke-linecap="round"/>
    <path d="M77 82Q91 73 104 84" fill="none" stroke="#111827" stroke-width="5" stroke-linecap="round"/>
    <path d="M143 82Q129 73 116 84" fill="none" stroke="#111827" stroke-width="5" stroke-linecap="round"/>
    <path d="M91 93C88 107 84 119 78 132" stroke="#60A5FA" stroke-width="7" stroke-linecap="round" opacity="0.95"/>
    <path d="M129 93C132 107 136 119 142 132" stroke="#60A5FA" stroke-width="7" stroke-linecap="round" opacity="0.95"/>
    <circle cx="110" cy="97" r="13" fill="#C5162E"/>
    <circle cx="105" cy="92" r="4" fill="#FFB4BF" opacity="0.8"/>
    <path d="M88 119C101 108 119 108 132 119" fill="none" stroke="#5B0F1A" stroke-width="6" stroke-linecap="round"/>
    <path d="M101 105Q110 112 119 105Q116 119 110 124Q104 119 101 105Z" fill="#E9902F"/>
  </g>
</svg><svg xmlns="http://www.w3.org/2000/svg" viewBox="0 0 220 220" width="220" height="220">
  <defs>
    <radialGradient id="bg" cx="50%" cy="18%" r="84%">
      <stop offset="0" stop-color="#1D4ED8"/>
      <stop offset="0.58" stop-color="#0F172A"/>
      <stop offset="1" stop-color="#070A12"/>
    </radialGradient>
    <radialGradient id="hair" cx="50%" cy="44%" r="70%">
      <stop offset="0" stop-color="#FF7686"/>
      <stop offset="0.5" stop-color="#C5162E"/>
      <stop offset="1" stop-color="#650713"/>
    </radialGradient>
    <radialGradient id="face" cx="40%" cy="22%" r="76%">
      <stop offset="0" stop-color="#FFFFFF"/>
      <stop offset="0.6" stop-color="#EAF6FF"/>
      <stop offset="1" stop-color="#BCD0E6"/>
    </radialGradient>
    <linearGradient id="suit" x1="58" y1="142" x2="166" y2="214" gradientUnits="userSpaceOnUse">
      <stop stop-color="#38BDF8"/>
      <stop offset="0.5" stop-color="#1E3A8A"/>
      <stop offset="1" stop-color="#6D28D9"/>
    </linearGradient>
    <filter id="shadow" x="-25%" y="-25%" width="150%" height="150%">
      <feDropShadow dx="0" dy="7" stdDeviation="5" flood-color="#020617" flood-opacity="0.38"/>
    </filter>
  </defs>
  <rect width="220" height="220" rx="44" fill="url(#bg)"/>
  <path d="M21 184C46 168 78 162 110 168C148 176 180 164 200 146V220H21Z" fill="#082F49" opacity="0.86"/>
  <path d="M37 40C31 31 32 23 40 17" stroke="#93C5FD" stroke-width="4" stroke-linecap="round" fill="none" opacity="0.8"/>
  <path d="M184 40C190 31 188 23 180 17" stroke="#93C5FD" stroke-width="4" stroke-linecap="round" fill="none" opacity="0.8"/>
  <g filter="url(#shadow)">
    <path d="M58 148C68 129 86 120 110 120C135 120 153 130 163 149L180 214H41Z" fill="url(#suit)"/>
    <path d="M55 140C70 119 91 114 110 126C130 114 151 119 166 140C151 157 129 158 110 143C91 158 70 157 55 140Z" fill="#F8FAFC"/>
    <ellipse cx="61" cy="85" rx="37" ry="47" fill="url(#hair)" transform="rotate(-19 61 85)"/>
    <ellipse cx="159" cy="85" rx="37" ry="47" fill="url(#hair)" transform="rotate(19 159 85)"/>
    <path d="M71 52C87 21 133 21 149 52C132 44 88 44 71 52Z" fill="url(#hair)"/>
    <ellipse cx="110" cy="84" rx="51" ry="59" fill="url(#face)"/>
    <path d="M80 64C91 55 101 57 108 69" fill="none" stroke="#1F2937" stroke-width="4" stroke-linecap="round"/>
    <path d="M140 64C129 55 119 57 112 69" fill="none" stroke="#1F2937" stroke-width="4" stroke-linecap="round"/>
    <path d="M77 82Q91 73 104 84" fill="none" stroke="#111827" stroke-width="5" stroke-linecap="round"/>
    <path d="M143 82Q129 73 116 84" fill="none" stroke="#111827" stroke-width="5" stroke-linecap="round"/>
    <path d="M91 93C88 107 84 119 78 132" stroke="#60A5FA" stroke-width="7" stroke-linecap="round" opacity="0.95"/>
    <path d="M129 93C132 107 136 119 142 132" stroke="#60A5FA" stroke-width="7" stroke-linecap="round" opacity="0.95"/>
    <circle cx="110" cy="97" r="13" fill="#C5162E"/>
    <circle cx="105" cy="92" r="4" fill="#FFB4BF" opacity="0.8"/>
    <path d="M88 119C101 108 119 108 132 119" fill="none" stroke="#5B0F1A" stroke-width="6" stroke-linecap="round"/>
    <path d="M101 105Q110 112 119 105Q116 119 110 124Q104 119 101 105Z" fill="#E9902F"/>
  </g>
</svg>