<svg xmlns="http://www.w3.org/2000/svg" viewBox="0 0 220 220" width="220" height="220">
  <defs>
    <radialGradient id="bg" cx="50%" cy="18%" r="82%">
      <stop offset="0" stop-color="#172554"/>
      <stop offset="0.58" stop-color="#0F172A"/>
      <stop offset="1" stop-color="#070A12"/>
    </radialGradient>
    <radialGradient id="hair" cx="50%" cy="44%" r="72%">
      <stop offset="0" stop-color="#FF6F7F"/>
      <stop offset="0.5" stop-color="#C9162F"/>
      <stop offset="1" stop-color="#680714"/>
    </radialGradient>
    <radialGradient id="face" cx="40%" cy="22%" r="76%">
      <stop offset="0" stop-color="#FFFFFF"/>
      <stop offset="0.58" stop-color="#EDF6FF"/>
      <stop offset="1" stop-color="#C9D7E8"/>
    </radialGradient>
    <linearGradient id="suit" x1="58" y1="142" x2="166" y2="214" gradientUnits="userSpaceOnUse">
      <stop stop-color="#22C55E"/>
      <stop offset="0.5" stop-color="#1E3A8A"/>
      <stop offset="1" stop-color="#6D28D9"/>
    </linearGradient>
    <filter id="shadow" x="-25%" y="-25%" width="150%" height="150%">
      <feDropShadow dx="0" dy="7" stdDeviation="5" flood-color="#020617" flood-opacity="0.38"/>
    </filter>
  </defs>
  <rect width="220" height="220" rx="44" fill="url(#bg)"/>
  <path d="M24 183C48 165 78 162 110 169C146 177 178 164 199 145V220H24Z" fill="#083344" opacity="0.86"/>
  <path d="M26 30L35 46L17 43Z" fill="#FACC15" opacity="0.82"/>
  <path d="M195 31L187 48L205 44Z" fill="#FACC15" opacity="0.82"/>
  <path d="M44 59L34 68" stroke="#60A5FA" stroke-width="4" stroke-linecap="round"/>
  <path d="M176 59L186 68" stroke="#60A5FA" stroke-width="4" stroke-linecap="round"/>

  <g filter="url(#shadow)">
    <path d="M58 148C68 129 86 120 110 120C135 120 153 130 163 149L180 214H41Z" fill="url(#suit)"/>
    <path d="M54 140C69 119 91 114 110 126C130 114 151 119 166 140C151 157 129 158 110 143C91 158 69 157 54 140Z" fill="#F8FAFC"/>
    <path d="M62 136C77 146 92 145 110 134C128 145 143 146 158 136" fill="none" stroke="#B8C3D2" stroke-width="3" stroke-linecap="round" opacity="0.6"/>

    <ellipse cx="61" cy="85" rx="37" ry="47" fill="url(#hair)" transform="rotate(-19 61 85)"/>
    <ellipse cx="159" cy="85" rx="37" ry="47" fill="url(#hair)" transform="rotate(19 159 85)"/>
    <path d="M71 52C87 21 133 21 149 52C132 44 88 44 71 52Z" fill="url(#hair)"/>

    <ellipse cx="110" cy="84" rx="51" ry="59" fill="url(#face)"/>
    <path d="M77 61C88 48 101 51 107 67" fill="none" stroke="#1F2937" stroke-width="4" stroke-linecap="round"/>
    <path d="M143 61C132 48 119 51 113 67" fill="none" stroke="#1F2937" stroke-width="4" stroke-linecap="round"/>
    <circle cx="91" cy="81" r="15" fill="#FFFFFF" stroke="#111827" stroke-width="3"/>
    <circle cx="129" cy="81" r="15" fill="#FFFFFF" stroke="#111827" stroke-width="3"/>
    <circle cx="91" cy="82" r="7" fill="#020617"/>
    <circle cx="129" cy="82" r="7" fill="#020617"/>
    <circle cx="96" cy="76" r="3" fill="#FFFFFF"/>
    <circle cx="134" cy="76" r="3" fill="#FFFFFF"/>
    <path d="M89 98C80 111 75 124 72 135" stroke="#C9162F" stroke-width="4" stroke-linecap="round"/>
    <path d="M131 98C140 111 145 124 148 135" stroke="#C9162F" stroke-width="4" stroke-linecap="round"/>
    <circle cx="110" cy="97" r="13" fill="#C9162F"/>
    <circle cx="105" cy="92" r="4" fill="#FFB4BF" opacity="0.8"/>
    <ellipse cx="110" cy="119" rx="13" ry="17" fill="#5B0F1A"/>
    <ellipse cx="110" cy="123" rx="7" ry="9" fill="#E9902F" opacity="0.9"/>
    <path d="M157 50C163 62 161 74 153 83" stroke="#60A5FA" stroke-width="5" stroke-linecap="round"/>
    <circle cx="151" cy="88" r="4" fill="#60A5FA" opacity="0.8"/>
  </g>
</svg>