<svg xmlns="http://www.w3.org/2000/svg" viewBox="0 0 220 220" width="220" height="220">
  <defs>
    <radialGradient id="bg" cx="48%" cy="22%" r="82%">
      <stop offset="0" stop-color="#2E1634"/>
      <stop offset="0.58" stop-color="#111827"/>
      <stop offset="1" stop-color="#070A12"/>
    </radialGradient>
    <radialGradient id="hair" cx="50%" cy="45%" r="68%">
      <stop offset="0" stop-color="#FF5164"/>
      <stop offset="0.48" stop-color="#C5162E"/>
      <stop offset="1" stop-color="#6D0715"/>
    </radialGradient>
    <radialGradient id="face" cx="42%" cy="24%" r="78%">
      <stop offset="0" stop-color="#FFFFFF"/>
      <stop offset="0.54" stop-color="#F6F0DF"/>
      <stop offset="1" stop-color="#D9CBAE"/>
    </radialGradient>
    <linearGradient id="suit" x1="62" y1="142" x2="158" y2="213" gradientUnits="userSpaceOnUse">
      <stop stop-color="#2FD074"/>
      <stop offset="0.48" stop-color="#24346E"/>
      <stop offset="1" stop-color="#6D28D9"/>
    </linearGradient>
    <linearGradient id="ruffle" x1="55" y1="118" x2="165" y2="153" gradientUnits="userSpaceOnUse">
      <stop stop-color="#F7F2DF"/>
      <stop offset="0.5" stop-color="#FFFFFF"/>
      <stop offset="1" stop-color="#C9D7F3"/>
    </linearGradient>
    <filter id="shadow" x="-25%" y="-25%" width="150%" height="150%">
      <feDropShadow dx="0" dy="6" stdDeviation="5" flood-color="#020617" flood-opacity="0.35"/>
    </filter>
  </defs>
  <rect width="220" height="220" rx="44" fill="url(#bg)"/>
  <path d="M21 184C45 168 72 162 108 166C148 171 179 166 202 149V220H21Z" fill="#0C4A3B" opacity="0.82"/>
  <ellipse cx="111" cy="206" rx="64" ry="10" fill="#020617" opacity="0.35"/>

  <g filter="url(#shadow)">
    <path d="M62 145C70 127 86 118 110 118C134 118 151 128 159 146L175 211H45Z" fill="url(#suit)"/>
    <path d="M82 153L109 199L137 153" fill="none" stroke="#FFF1B7" stroke-width="6" stroke-linecap="round" stroke-linejoin="round" opacity="0.82"/>
    <path d="M83 166C72 170 63 181 59 199" stroke="#22C55E" stroke-width="8" stroke-linecap="round"/>
    <path d="M137 166C149 170 158 181 162 199" stroke="#7C3AED" stroke-width="8" stroke-linecap="round"/>

    <path d="M53 119C57 102 72 92 92 98C87 118 75 131 55 137Z" fill="#F8FAFC"/>
    <path d="M167 119C163 102 148 92 128 98C133 118 145 131 165 137Z" fill="#F8FAFC"/>
    <path d="M57 137C70 115 91 108 110 121C129 108 150 115 163 137C151 151 131 153 110 140C89 153 69 151 57 137Z" fill="url(#ruffle)"/>
    <path d="M62 132C78 143 92 142 110 131C128 142 142 143 158 132" fill="none" stroke="#C7B99B" stroke-width="3" stroke-linecap="round" opacity="0.55"/>

    <ellipse cx="64" cy="83" rx="35" ry="45" fill="url(#hair)" transform="rotate(-16 64 83)"/>
    <ellipse cx="156" cy="83" rx="35" ry="45" fill="url(#hair)" transform="rotate(16 156 83)"/>
    <path d="M73 52C86 23 133 23 147 52C132 43 88 43 73 52Z" fill="url(#hair)"/>

    <ellipse cx="110" cy="82" rx="49" ry="58" fill="url(#face)"/>
    <path d="M78 52C93 42 127 42 142 52C135 32 85 32 78 52Z" fill="#E8DCC5" opacity="0.82"/>
    <path d="M85 68C93 59 103 59 110 72C117 59 127 59 135 68" fill="none" stroke="#1F2937" stroke-width="3" stroke-linecap="round"/>
    <path d="M81 77C89 69 101 69 106 82" fill="none" stroke="#111827" stroke-width="4" stroke-linecap="round"/>
    <path d="M139 77C131 69 119 69 114 82" fill="none" stroke="#111827" stroke-width="4" stroke-linecap="round"/>
    <circle cx="93" cy="82" r="5" fill="#020617"/>
    <circle cx="127" cy="82" r="5" fill="#020617"/>
    <path d="M91 96C83 108 78 118 75 130" stroke="#C5162E" stroke-width="4" stroke-linecap="round"/>
    <path d="M129 96C137 108 142 118 145 130" stroke="#C5162E" stroke-width="4" stroke-linecap="round"/>
    <circle cx="110" cy="96" r="13" fill="#C5162E"/>
    <circle cx="105" cy="91" r="4" fill="#FFB4BF" opacity="0.78"/>
    <path d="M88 115C101 126 119 126 132 115" fill="none" stroke="#67111D" stroke-width="5" stroke-linecap="round"/>
    <path d="M93 112C103 118 117 118 127 112" fill="none" stroke="#FFF7ED" stroke-width="3" stroke-linecap="round" opacity="0.95"/>
    <path d="M101 105Q110 112 119 105Q116 119 110 124Q104 119 101 105Z" fill="#E9902F" opacity="0.88"/>
  </g>
</svg>