<svg width="220" height="220" viewBox="0 0 220 220" fill="none" xmlns="http://www.w3.org/2000/svg">
  <rect width="220" height="220" rx="40" fill="#FFF3D2"/>
  <path d="M109 26L126 55H92L109 26Z" fill="#FF5A9E" stroke="#243043" stroke-width="5" stroke-linejoin="round"/>
  <circle cx="109" cy="22" r="6" fill="#4AB9E6" stroke="#243043" stroke-width="4"/>
  <ellipse cx="110" cy="117" rx="66" ry="70" fill="#FFE173" stroke="#243043" stroke-width="7"/>
  <ellipse cx="81" cy="104" rx="18" ry="20" fill="#fff" stroke="#243043" stroke-width="5"/>
  <ellipse cx="138" cy="104" rx="18" ry="20" fill="#fff" stroke="#243043" stroke-width="5"/>
  <circle cx="86" cy="108" r="7" fill="#243043"/>
  <circle cx="141" cy="108" r="7" fill="#243043"/>
  <path d="M69 96L57 112" stroke="#4AB9E6" stroke-width="5" stroke-linecap="round"/>
  <path d="M151 96L163 112" stroke="#FF5A9E" stroke-width="5" stroke-linecap="round"/>
  <circle cx="111" cy="122" r="8" fill="#FF5A4F" stroke="#243043" stroke-width="4"/>
  <path d="M111 130L131 145H91L111 130Z" fill="#FF7A33" stroke="#243043" stroke-width="4" stroke-linejoin="round"/>
  <path d="M78 160C94 173 127 173 144 160" stroke="#243043" stroke-width="6" stroke-linecap="round"/>
  <path d="M48 84L30 68" stroke="#243043" stroke-width="7" stroke-linecap="round"/>
  <path d="M172 84L190 68" stroke="#243043" stroke-width="7" stroke-linecap="round"/>
  <path d="M79 186C95 194 125 194 142 186" stroke="#243043" stroke-width="5" stroke-linecap="round" stroke-dasharray="2 9"/>
</svg>
