<svg xmlns="http://www.w3.org/2000/svg" viewBox="0 0 220 220" width="220" height="220">
  <defs>
    <radialGradient id="bg" cx="48%" cy="20%" r="84%">
      <stop offset="0" stop-color="#3D1023"/>
      <stop offset="0.6" stop-color="#121826"/>
      <stop offset="1" stop-color="#070A12"/>
    </radialGradient>
    <radialGradient id="hair" cx="46%" cy="42%" r="70%">
      <stop offset="0" stop-color="#FF6B7B"/>
      <stop offset="0.48" stop-color="#D91532"/>
      <stop offset="1" stop-color="#7F0718"/>
    </radialGradient>
    <radialGradient id="face" cx="38%" cy="22%" r="76%">
      <stop offset="0" stop-color="#FFFFFF"/>
      <stop offset="0.56" stop-color="#F7EFD9"/>
      <stop offset="1" stop-color="#DCCDAF"/>
    </radialGradient>
    <linearGradient id="suit" x1="58" y1="138" x2="166" y2="212" gradientUnits="userSpaceOnUse">
      <stop stop-color="#36D67D"/>
      <stop offset="0.45" stop-color="#253B78"/>
      <stop offset="1" stop-color="#7C2FE4"/>
    </linearGradient>
    <filter id="shadow" x="-25%" y="-25%" width="150%" height="150%">
      <feDropShadow dx="0" dy="7" stdDeviation="5" flood-color="#020617" flood-opacity="0.38"/>
    </filter>
  </defs>
  <rect width="220" height="220" rx="44" fill="url(#bg)"/>
  <path d="M18 179C42 166 75 160 110 167C148 174 180 164 202 143V220H18Z" fill="#093B31" opacity="0.84"/>
  <path d="M31 47C23 35 24 23 34 13" stroke="#FACC15" stroke-width="4" stroke-linecap="round" fill="none" opacity="0.78"/>
  <path d="M190 49C198 37 197 25 187 15" stroke="#FACC15" stroke-width="4" stroke-linecap="round" fill="none" opacity="0.78"/>
  <path d="M25 69C17 65 13 56 16 47" stroke="#F97316" stroke-width="3" stroke-linecap="round" fill="none" opacity="0.7"/>
  <path d="M196 69C204 65 208 56 205 47" stroke="#F97316" stroke-width="3" stroke-linecap="round" fill="none" opacity="0.7"/>

  <g filter="url(#shadow)">
    <path d="M58 148C68 129 86 119 110 119C135 119 153 130 163 148L179 214H42Z" fill="url(#suit)"/>
    <path d="M56 141C70 120 91 113 110 125C130 112 151 121 164 142C150 159 129 158 110 143C91 158 70 158 56 141Z" fill="#F8FAFC"/>
    <path d="M62 136C77 146 92 145 110 134C128 145 143 146 158 136" fill="none" stroke="#C4B59B" stroke-width="3" stroke-linecap="round" opacity="0.55"/>
    <circle cx="110" cy="140" r="9" fill="#FACC15"/>

    <ellipse cx="62" cy="85" rx="38" ry="47" fill="url(#hair)" transform="rotate(-21 62 85)"/>
    <ellipse cx="158" cy="85" rx="38" ry="47" fill="url(#hair)" transform="rotate(21 158 85)"/>
    <path d="M70 51C86 19 134 19 150 51C132 43 88 43 70 51Z" fill="url(#hair)"/>

    <ellipse cx="110" cy="83" rx="51" ry="58" fill="url(#face)"/>
    <path d="M84 62C96 52 105 58 110 73C115 58 124 52 136 62" fill="none" stroke="#1F2937" stroke-width="3" stroke-linecap="round"/>
    <path d="M76 81Q91 68 104 84" fill="none" stroke="#111827" stroke-width="5" stroke-linecap="round"/>
    <path d="M144 81Q129 68 116 84" fill="none" stroke="#111827" stroke-width="5" stroke-linecap="round"/>
    <path d="M89 96C80 111 75 123 73 134" stroke="#D91532" stroke-width="4" stroke-linecap="round"/>
    <path d="M131 96C140 111 145 123 147 134" stroke="#D91532" stroke-width="4" stroke-linecap="round"/>
    <circle cx="110" cy="96" r="13" fill="#D91532"/>
    <circle cx="105" cy="91" r="4" fill="#FFC0C8" opacity="0.82"/>
    <path d="M81 111C96 133 124 133 139 111C133 139 88 139 81 111Z" fill="#62101B"/>
    <path d="M92 113C101 119 119 119 128 113" stroke="#FFF7ED" stroke-width="5" stroke-linecap="round"/>
    <ellipse cx="110" cy="127" rx="14" ry="7" fill="#F4728C"/>
    <path d="M101 105Q110 112 119 105Q116 119 110 123Q104 119 101 105Z" fill="#E9902F"/>
  </g>
</svg>