<svg xmlns="http://www.w3.org/2000/svg" viewBox="0 0 220 220" width="220" height="220">
  <defs>
    <radialGradient id="bg" cx="48%" cy="20%" r="84%">
      <stop offset="0" stop-color="#14532D"/>
      <stop offset="0.58" stop-color="#111827"/>
      <stop offset="1" stop-color="#070A12"/>
    </radialGradient>
    <radialGradient id="hair" cx="46%" cy="42%" r="70%">
      <stop offset="0" stop-color="#FF6B7B"/>
      <stop offset="0.48" stop-color="#D91532"/>
      <stop offset="1" stop-color="#7F0718"/>
    </radialGradient>
    <radialGradient id="face" cx="38%" cy="22%" r="76%">
      <stop offset="0" stop-color="#FFFFFF"/>
      <stop offset="0.56" stop-color="#F7EFD9"/>
      <stop offset="1" stop-color="#DCCDAF"/>
    </radialGradient>
    <linearGradient id="suit" x1="58" y1="138" x2="166" y2="212" gradientUnits="userSpaceOnUse">
      <stop stop-color="#36D67D"/>
      <stop offset="0.45" stop-color="#253B78"/>
      <stop offset="1" stop-color="#7C2FE4"/>
    </linearGradient>
    <filter id="shadow" x="-25%" y="-25%" width="150%" height="150%">
      <feDropShadow dx="0" dy="7" stdDeviation="5" flood-color="#020617" flood-opacity="0.38"/>
    </filter>
  </defs>
  <rect width="220" height="220" rx="44" fill="url(#bg)"/>
  <path d="M18 179C42 166 75 160 110 167C148 174 180 164 202 143V220H18Z" fill="#064E3B" opacity="0.86"/>
  <path d="M30 52L43 24L60 58Z" fill="#FACC15"/>
  <path d="M42 40L52 35" stroke="#EF4444" stroke-width="4" stroke-linecap="round"/>
  <path d="M43 50L53 55" stroke="#22C55E" stroke-width="4" stroke-linecap="round"/>
  <circle cx="180" cy="38" r="6" fill="#FACC15"/>
  <circle cx="196" cy="63" r="5" fill="#22C55E"/>
  <circle cx="26" cy="82" r="5" fill="#60A5FA"/>
  <g filter="url(#shadow)">
    <path d="M58 148C68 129 86 119 110 119C135 119 153 130 163 148L179 214H42Z" fill="url(#suit)"/>
    <path d="M56 141C70 120 91 113 110 125C130 112 151 121 164 142C150 159 129 158 110 143C91 158 70 158 56 141Z" fill="#F8FAFC"/>
    <circle cx="110" cy="140" r="9" fill="#FACC15"/>
    <ellipse cx="62" cy="85" rx="38" ry="47" fill="url(#hair)" transform="rotate(-21 62 85)"/>
    <ellipse cx="158" cy="85" rx="38" ry="47" fill="url(#hair)" transform="rotate(21 158 85)"/>
    <path d="M70 51C86 19 134 19 150 51C132 43 88 43 70 51Z" fill="url(#hair)"/>
    <ellipse cx="110" cy="83" rx="51" ry="58" fill="url(#face)"/>
    <path d="M83 62C96 52 105 58 110 73C115 58 124 52 137 62" fill="none" stroke="#1F2937" stroke-width="3" stroke-linecap="round"/>
    <path d="M78 79C88 69 100 69 106 82" fill="none" stroke="#111827" stroke-width="4" stroke-linecap="round"/>
    <path d="M142 79C132 69 120 69 114 82" fill="none" stroke="#111827" stroke-width="4" stroke-linecap="round"/>
    <circle cx="92" cy="82" r="5" fill="#020617"/>
    <circle cx="128" cy="82" r="5" fill="#020617"/>
    <path d="M89 96C80 111 75 123 73 134" stroke="#D91532" stroke-width="4" stroke-linecap="round"/>
    <path d="M131 96C140 111 145 123 147 134" stroke="#D91532" stroke-width="4" stroke-linecap="round"/>
    <circle cx="110" cy="96" r="13" fill="#D91532"/>
    <path d="M82 112C98 135 124 135 140 112C133 140 89 140 82 112Z" fill="#62101B"/>
    <path d="M93 114C102 120 118 120 127 114" stroke="#FFF7ED" stroke-width="5" stroke-linecap="round"/>
    <ellipse cx="110" cy="128" rx="13" ry="7" fill="#F4728C"/>
    <path d="M101 105Q110 112 119 105Q116 119 110 123Q104 119 101 105Z" fill="#E9902F"/>
  </g>
</svg>
