<svg width="1600" height="900" viewBox="0 0 1600 900" xmlns="http://www.w3.org/2000/svg">
  <defs>
    <linearGradient id="h" x1="0" y1="0" x2="1600" y2="280"><stop stop-color="#071225"/><stop offset=".65" stop-color="#0D1832"/><stop offset="1" stop-color="#111827"/></linearGradient>
    <filter id="s"><feDropShadow dx="0" dy="8" stdDeviation="18" flood-color="#071225" flood-opacity=".13"/></filter>
  </defs>
  <rect width="1600" height="900" fill="#F2F5FF"/>
  <rect width="1600" height="280" fill="url(#h)"/>
  <g transform="translate(110 62)">
    <rect width="250" height="34" rx="17" fill="#FFD24A" opacity=".12" stroke="#FFD24A" stroke-opacity=".38"/>
    <circle cx="22" cy="17" r="4" fill="#FFD24A"/>
    <text x="38" y="23" fill="#FFD24A" font-family="Arial,sans-serif" font-size="15" font-weight="800" letter-spacing="2">주식 기회비용 계산기</text>
    <text y="104" fill="#FFFFFF" font-family="Arial,sans-serif" font-size="78" font-weight="900">껄껄무새</text>
    <text x="4" y="156" fill="#CBD5E1" font-family="Arial,sans-serif" font-size="28" font-weight="700">매도했더니 오르고, 갈아탔더니 떨어질 때</text>
    <text x="4" y="194" fill="#64748B" font-family="Arial,sans-serif" font-size="23" font-weight="700">종가 기준 · 미국/한국 주식 · 환율 자동반영</text>
  </g>
  <g transform="translate(1210 50)">
    <rect width="178" height="178" rx="36" fill="#0B1428"/>
    <path d="M40 134C48 105 68 92 89 92C111 92 131 105 139 134C126 150 109 158 89 158C70 158 53 150 40 134Z" fill="#2DBE68"/>
    <path d="M55 70L89 20L125 70H55Z" fill="#FF4478"/>
    <ellipse cx="89" cy="70" rx="40" ry="9" fill="#FF6A9B"/>
    <circle cx="89" cy="32" r="8" fill="#FFD24A"/>
    <ellipse cx="89" cy="92" rx="48" ry="45" fill="#FFE88A"/>
    <circle cx="66" cy="94" r="17" fill="#FFF" stroke="#0F1928" stroke-width="4"/>
    <circle cx="112" cy="94" r="17" fill="#FFF" stroke="#0F1928" stroke-width="4"/>
    <circle cx="66" cy="94" r="8" fill="#1D4ED8"/><circle cx="112" cy="94" r="8" fill="#1D4ED8"/>
    <circle cx="89" cy="109" r="12" fill="#E50914"/>
    <path d="M69 130C80 139 99 139 109 130" stroke="#0F1928" stroke-width="6" stroke-linecap="round" fill="none"/>
  </g>
  <g filter="url(#s)">
    <rect x="110" y="334" width="880" height="440" rx="8" fill="#FFF" stroke="#E4E9F2"/>
    <circle cx="165" cy="389" r="17" fill="#18A78F"/><text x="160" y="395" fill="#FFF" font-family="Arial,sans-serif" font-size="18" font-weight="900">1</text>
    <text x="196" y="397" fill="#0F1928" font-family="Arial,sans-serif" font-size="28" font-weight="900">매도 정보</text>
    <rect x="148" y="430" width="250" height="70" rx="8" fill="#FAFFFE" stroke="#D8E1ED"/><rect x="422" y="430" width="250" height="70" rx="8" fill="#FAFFFE" stroke="#D8E1ED"/><rect x="696" y="430" width="250" height="70" rx="8" fill="#FAFFFE" stroke="#D8E1ED"/>
    <text x="170" y="474" fill="#0F1928" font-family="Arial,sans-serif" font-size="24" font-weight="900">TSLA</text><text x="444" y="474" fill="#6B7FA0" font-family="Arial,sans-serif" font-size="23" font-weight="800">2024-01-02</text><text x="718" y="474" fill="#0F1928" font-family="Arial,sans-serif" font-size="24" font-weight="900">10주</text>
    <circle cx="165" cy="566" r="17" fill="#18A78F"/><text x="160" y="572" fill="#FFF" font-family="Arial,sans-serif" font-size="18" font-weight="900">2</text>
    <text x="196" y="574" fill="#0F1928" font-family="Arial,sans-serif" font-size="28" font-weight="900">갈아탄 종목</text>
    <rect x="148" y="614" width="798" height="68" rx="8" fill="#F7F9FC" stroke="#E4E9F2"/><rect x="148" y="698" width="798" height="68" rx="8" fill="#F7F9FC" stroke="#E4E9F2"/>
    <text x="170" y="657" fill="#0F1928" font-family="Arial,sans-serif" font-size="23" font-weight="900">NVDA</text><text x="832" y="657" fill="#18A78F" font-family="Arial,sans-serif" font-size="23" font-weight="900">50%</text>
    <text x="170" y="741" fill="#0F1928" font-family="Arial,sans-serif" font-size="23" font-weight="900">005930</text><text x="832" y="741" fill="#18A78F" font-family="Arial,sans-serif" font-size="23" font-weight="900">50%</text>
  </g>
  <g filter="url(#s)">
    <rect x="1030" y="334" width="460" height="440" rx="8" fill="#FFF" stroke="#E4E9F2"/>
    <rect x="1070" y="374" width="380" height="116" rx="8" fill="#FFF0F2" stroke="#FFCDD5" stroke-width="2"/>
    <text x="1096" y="414" fill="#9F1239" font-family="Arial,sans-serif" font-size="18" font-weight="900" letter-spacing="2">껄껄무새 판정</text>
    <text x="1096" y="458" fill="#0F1928" font-family="Arial,sans-serif" font-size="36" font-weight="900">못 참겠다, 껄껄껄</text>
    <rect x="1070" y="522" width="180" height="116" rx="8" fill="#EDFDF7" stroke="#A7F3D0"/><rect x="1270" y="522" width="180" height="116" rx="8" fill="#FFF" stroke="#E4E9F2"/>
    <text x="1088" y="562" fill="#6B7FA0" font-family="Arial,sans-serif" font-size="16" font-weight="800">갈아탄 포트폴리오</text><text x="1088" y="604" fill="#065F46" font-family="Arial,sans-serif" font-size="27" font-weight="900">₩12,340,000</text>
    <text x="1288" y="562" fill="#6B7FA0" font-family="Arial,sans-serif" font-size="16" font-weight="800">들고 있었다면</text><text x="1288" y="604" fill="#0F1928" font-family="Arial,sans-serif" font-size="27" font-weight="900">₩14,810,000</text>
    <rect x="1070" y="670" width="380" height="52" rx="8" fill="#18A78F"/><text x="1260" y="705" text-anchor="middle" fill="#FFF" font-family="Arial,sans-serif" font-size="23" font-weight="900">껄껄 계산하기</text>
  </g>
</svg>