<svg width="750" height="1334" viewBox="0 0 750 1334" xmlns="http://www.w3.org/2000/svg">
  <defs>
    <linearGradient id="h" x1="0" y1="0" x2="750" y2="280"><stop stop-color="#071225"/><stop offset=".68" stop-color="#0D1832"/><stop offset="1" stop-color="#111827"/></linearGradient>
    <filter id="s"><feDropShadow dx="0" dy="8" stdDeviation="18" flood-color="#071225" flood-opacity=".13"/></filter>
  </defs>
  <rect width="750" height="1334" fill="#F2F5FF"/>
  <rect width="750" height="276" fill="url(#h)"/>
  <g transform="translate(44 46)">
    <rect width="250" height="34" rx="17" fill="#FFD24A" opacity=".12" stroke="#FFD24A" stroke-opacity=".38"/>
    <circle cx="22" cy="17" r="4" fill="#FFD24A"/>
    <text x="38" y="23" fill="#FFD24A" font-family="Arial,sans-serif" font-size="15" font-weight="800" letter-spacing="2">주식 기회비용 계산기</text>
    <text y="106" fill="#FFF" font-family="Arial,sans-serif" font-size="64" font-weight="900">껄껄무새</text>
    <text x="2" y="152" fill="#CBD5E1" font-family="Arial,sans-serif" font-size="24" font-weight="700">매도했더니 오르고, 갈아탔더니 떨어질 때</text>
  </g>
  <g transform="translate(566 54) scale(.72)">
    <rect width="180" height="180" rx="38" fill="#0B1428"/>
    <path d="M40 134C48 105 68 92 90 92C112 92 132 105 140 134C126 151 110 158 90 158C70 158 54 151 40 134Z" fill="#2DBE68"/>
    <path d="M56 70L90 20L126 70H56Z" fill="#FF4478"/>
    <ellipse cx="90" cy="70" rx="40" ry="9" fill="#FF6A9B"/>
    <circle cx="90" cy="32" r="8" fill="#FFD24A"/>
    <ellipse cx="90" cy="92" rx="48" ry="45" fill="#FFE88A"/>
    <circle cx="67" cy="94" r="17" fill="#FFF" stroke="#0F1928" stroke-width="4"/>
    <circle cx="113" cy="94" r="17" fill="#FFF" stroke="#0F1928" stroke-width="4"/>
    <circle cx="67" cy="94" r="8" fill="#1D4ED8"/><circle cx="113" cy="94" r="8" fill="#1D4ED8"/>
    <circle cx="90" cy="109" r="12" fill="#E50914"/>
    <path d="M70 130C80 139 100 139 110 130" stroke="#0F1928" stroke-width="6" stroke-linecap="round" fill="none"/>
  </g>
  <g filter="url(#s)">
    <rect x="44" y="326" width="662" height="164" rx="8" fill="#FFF" stroke="#E4E9F2"/>
    <circle cx="82" cy="370" r="17" fill="#18A78F"/><text x="77" y="376" fill="#FFF" font-family="Arial,sans-serif" font-size="18" font-weight="900">1</text>
    <text x="112" y="378" fill="#0F1928" font-family="Arial,sans-serif" font-size="27" font-weight="900">매도 정보</text>
    <rect x="78" y="414" width="592" height="48" rx="8" fill="#FAFFFE" stroke="#D8E1ED"/>
    <text x="100" y="446" fill="#0F1928" font-family="Arial,sans-serif" font-size="22" font-weight="900">TSLA · 2024-01-02 · 10주</text>
    <rect x="44" y="516" width="662" height="224" rx="8" fill="#FFF" stroke="#E4E9F2"/>
    <circle cx="82" cy="560" r="17" fill="#18A78F"/><text x="77" y="566" fill="#FFF" font-family="Arial,sans-serif" font-size="18" font-weight="900">2</text>
    <text x="112" y="568" fill="#0F1928" font-family="Arial,sans-serif" font-size="27" font-weight="900">갈아탄 종목</text>
    <rect x="78" y="604" width="592" height="48" rx="8" fill="#F7F9FC" stroke="#E4E9F2"/><rect x="78" y="666" width="592" height="48" rx="8" fill="#F7F9FC" stroke="#E4E9F2"/>
    <text x="100" y="636" fill="#0F1928" font-family="Arial,sans-serif" font-size="22" font-weight="900">NVDA</text><text x="586" y="636" fill="#18A78F" font-family="Arial,sans-serif" font-size="22" font-weight="900">50%</text>
    <text x="100" y="698" fill="#0F1928" font-family="Arial,sans-serif" font-size="22" font-weight="900">005930</text><text x="586" y="698" fill="#18A78F" font-family="Arial,sans-serif" font-size="22" font-weight="900">50%</text>
    <rect x="44" y="766" width="662" height="124" rx="8" fill="#FFF" stroke="#E4E9F2"/>
    <circle cx="82" cy="810" r="17" fill="#18A78F"/><text x="77" y="816" fill="#FFF" font-family="Arial,sans-serif" font-size="18" font-weight="900">3</text>
    <text x="112" y="818" fill="#0F1928" font-family="Arial,sans-serif" font-size="27" font-weight="900">평가 기준일</text>
    <rect x="78" y="842" width="592" height="34" rx="8" fill="#18A78F"/><text x="374" y="866" text-anchor="middle" fill="#FFF" font-family="Arial,sans-serif" font-size="20" font-weight="900">껄껄 계산하기</text>
    <rect x="44" y="930" width="662" height="160" rx="8" fill="#FFF0F2" stroke="#FFCDD5" stroke-width="2"/>
    <text x="84" y="984" fill="#9F1239" font-family="Arial,sans-serif" font-size="18" font-weight="900" letter-spacing="2">껄껄무새 판정</text>
    <text x="84" y="1033" fill="#0F1928" font-family="Arial,sans-serif" font-size="38" font-weight="900">못 참겠다, 껄껄껄</text>
    <text x="84" y="1074" fill="#6B7FA0" font-family="Arial,sans-serif" font-size="22" font-weight="700">그때 그냥 들고 있었으면 더 벌었어요.</text>
    <rect x="44" y="1120" width="315" height="128" rx="8" fill="#EDFDF7" stroke="#A7F3D0"/>
    <text x="74" y="1168" fill="#6B7FA0" font-family="Arial,sans-serif" font-size="18" font-weight="800">갈아탄 포트폴리오</text><text x="74" y="1215" fill="#065F46" font-family="Arial,sans-serif" font-size="31" font-weight="900">₩12,340,000</text>
    <rect x="391" y="1120" width="315" height="128" rx="8" fill="#FFF" stroke="#E4E9F2"/>
    <text x="421" y="1168" fill="#6B7FA0" font-family="Arial,sans-serif" font-size="18" font-weight="800">들고 있었다면</text><text x="421" y="1215" fill="#0F1928" font-family="Arial,sans-serif" font-size="31" font-weight="900">₩14,810,000</text>
  </g>
</svg>