<svg width="1600" height="900" viewBox="0 0 1600 900" fill="none" xmlns="http://www.w3.org/2000/svg">
  <rect width="1600" height="900" fill="#F6EFD9"/>
  <rect x="48" y="42" width="1504" height="816" rx="40" fill="#FFF8E6" stroke="#1F2A39" stroke-width="8"/>
  <rect x="78" y="72" width="1444" height="168" rx="30" fill="#0F1623"/>
  <circle cx="188" cy="156" r="56" fill="#FFE173" stroke="#1F2A39" stroke-width="8"/>
  <circle cx="169" cy="145" r="16" fill="#FFFDF7" stroke="#1F2A39" stroke-width="5"/>
  <circle cx="208" cy="145" r="16" fill="#FFFDF7" stroke="#1F2A39" stroke-width="5"/>
  <circle cx="172" cy="148" r="6" fill="#1F2A39"/>
  <circle cx="211" cy="148" r="6" fill="#1F2A39"/>
  <circle cx="190" cy="165" r="8" fill="#FF5A4F" stroke="#1F2A39" stroke-width="4"/>
  <path d="M190 170L205 184H175L190 170Z" fill="#FF8A2A" stroke="#1F2A39" stroke-width="4" stroke-linejoin="round"/>
  <path d="M171 192C179 202 201 202 210 192" stroke="#1F2A39" stroke-width="5" stroke-linecap="round"/>
  <path d="M158 159L148 176" stroke="#4AB9E6" stroke-width="5" stroke-linecap="round"/>
  <path d="M222 159L232 176" stroke="#FF5A9E" stroke-width="5" stroke-linecap="round"/>
  <path d="M160 115L146 98" stroke="#1F2A39" stroke-width="6" stroke-linecap="round"/>
  <path d="M220 115L234 98" stroke="#1F2A39" stroke-width="6" stroke-linecap="round"/>
  <text x="278" y="142" fill="#FFFFFF" font-family="Arial, sans-serif" font-size="74" font-weight="900">껄껄무새</text>
  <text x="280" y="190" fill="#A6B1C2" font-family="Arial, sans-serif" font-size="28" font-weight="700">주식 광대밈 기회비용 계산기</text>
  <rect x="92" y="282" width="828" height="500" rx="28" fill="#FFFFFF" stroke="#D7DDE7" stroke-width="4"/>
  <rect x="960" y="282" width="548" height="500" rx="28" fill="#FFF6D0" stroke="#1F2A39" stroke-width="4"/>
  <rect x="126" y="320" width="760" height="118" rx="24" fill="#FFF8E6" stroke="#E7D39C" stroke-width="3"/>
  <rect x="126" y="462" width="760" height="176" rx="24" fill="#FFF8E6" stroke="#E7D39C" stroke-width="3"/>
  <rect x="126" y="662" width="760" height="84" rx="24" fill="#18A78F"/>
  <text x="160" y="370" fill="#1F2A39" font-family="Arial, sans-serif" font-size="30" font-weight="800">1 매도 정보</text>
  <text x="160" y="412" fill="#667085" font-family="Arial, sans-serif" font-size="24">TSLA / 10주 / 매도일 입력</text>
  <text x="160" y="512" fill="#1F2A39" font-family="Arial, sans-serif" font-size="30" font-weight="800">2 갈아탄 종목</text>
  <text x="160" y="554" fill="#667085" font-family="Arial, sans-serif" font-size="24">NVDA 50% + 삼성전자 50%</text>
  <text x="416" y="716" text-anchor="middle" fill="#FFFFFF" font-family="Arial, sans-serif" font-size="30" font-weight="900">껄껄 계산하기</text>
  <text x="1000" y="348" fill="#1F2A39" font-family="Arial, sans-serif" font-size="28" font-weight="900">결과: 웃픈 기회비용 리포트</text>
  <rect x="1000" y="384" width="468" height="132" rx="20" fill="#FFFFFF" stroke="#D7DDE7" stroke-width="3"/>
  <rect x="1000" y="538" width="222" height="136" rx="20" fill="#FFFFFF" stroke="#D7DDE7" stroke-width="3"/>
  <rect x="1246" y="538" width="222" height="136" rx="20" fill="#FFFFFF" stroke="#D7DDE7" stroke-width="3"/>
  <text x="1030" y="432" fill="#1F2A39" font-family="Arial, sans-serif" font-size="25" font-weight="900">오늘도 광대 ON</text>
  <text x="1030" y="472" fill="#667085" font-family="Arial, sans-serif" font-size="21">갈아탔더니 떨어지고 그냥 들고 있었으면 올랐어요.</text>
  <text x="1110" y="602" text-anchor="middle" fill="#18A78F" font-family="Arial, sans-serif" font-size="22" font-weight="900">갈아탄 포트폴리오</text>
  <text x="1110" y="638" text-anchor="middle" fill="#1F2A39" font-family="Arial, sans-serif" font-size="26" font-weight="900">₩12,340,000</text>
  <text x="1357" y="602" text-anchor="middle" fill="#E15241" font-family="Arial, sans-serif" font-size="22" font-weight="900">들고 있었다면</text>
  <text x="1357" y="638" text-anchor="middle" fill="#1F2A39" font-family="Arial, sans-serif" font-size="26" font-weight="900">₩14,810,000</text>
</svg>