<svg xmlns="http://www.w3.org/2000/svg" viewBox="0 0 512 512" width="512" height="512">
  <defs>
    <radialGradient id="bg" cx="48%" cy="20%" r="82%">
      <stop offset="0" stop-color="#351737"/>
      <stop offset="0.58" stop-color="#111827"/>
      <stop offset="1" stop-color="#060912"/>
    </radialGradient>
    <radialGradient id="hair" cx="50%" cy="44%" r="72%">
      <stop offset="0" stop-color="#FF6475"/>
      <stop offset="0.48" stop-color="#C9162F"/>
      <stop offset="1" stop-color="#6A0615"/>
    </radialGradient>
    <radialGradient id="face" cx="40%" cy="22%" r="78%">
      <stop offset="0" stop-color="#FFFFFF"/>
      <stop offset="0.58" stop-color="#F6EED8"/>
      <stop offset="1" stop-color="#D6C5A8"/>
    </radialGradient>
    <linearGradient id="suit" x1="160" y1="342" x2="356" y2="492" gradientUnits="userSpaceOnUse">
      <stop stop-color="#2FD074"/>
      <stop offset="0.48" stop-color="#25346D"/>
      <stop offset="1" stop-color="#7C3AED"/>
    </linearGradient>
    <filter id="shadow" x="-20%" y="-20%" width="140%" height="140%">
      <feDropShadow dx="0" dy="16" stdDeviation="13" flood-color="#020617" flood-opacity="0.38"/>
    </filter>
  </defs>
  <rect width="512" height="512" rx="104" fill="url(#bg)"/>
  <path d="M42 416C101 378 174 367 260 381C357 396 432 369 491 313V512H42Z" fill="#0F4A3B" opacity="0.86"/>
  <circle cx="256" cy="256" r="226" fill="none" stroke="#FACC15" stroke-width="12" opacity="0.28"/>
  <g filter="url(#shadow)">
    <path d="M154 352C173 307 211 286 256 286C302 286 339 308 358 354L397 512H115Z" fill="url(#suit)"/>
    <path d="M134 325C169 276 213 260 256 290C299 260 343 276 378 325C344 367 298 369 256 335C214 369 168 367 134 325Z" fill="#F8FAFC"/>
    <path d="M153 314C188 340 219 340 256 310C293 340 324 340 359 314" fill="none" stroke="#C4B59B" stroke-width="9" stroke-linecap="round" opacity="0.55"/>
    <ellipse cx="157" cy="201" rx="85" ry="111" fill="url(#hair)" transform="rotate(-18 157 201)"/>
    <ellipse cx="355" cy="201" rx="85" ry="111" fill="url(#hair)" transform="rotate(18 355 201)"/>
    <path d="M171 126C204 57 308 57 341 126C304 106 208 106 171 126Z" fill="url(#hair)"/>
    <ellipse cx="256" cy="202" rx="109" ry="125" fill="url(#face)"/>
    <path d="M199 158C224 131 244 141 256 172C268 141 288 131 313 158" fill="none" stroke="#1F2937" stroke-width="10" stroke-linecap="round"/>
    <path d="M190 196C210 176 235 176 247 204" fill="none" stroke="#111827" stroke-width="12" stroke-linecap="round"/>
    <path d="M322 196C302 176 277 176 265 204" fill="none" stroke="#111827" stroke-width="12" stroke-linecap="round"/>
    <circle cx="218" cy="206" r="12" fill="#020617"/>
    <circle cx="294" cy="206" r="12" fill="#020617"/>
    <path d="M214 238C193 268 184 300 178 326" stroke="#C9162F" stroke-width="13" stroke-linecap="round"/>
    <path d="M298 238C319 268 328 300 334 326" stroke="#C9162F" stroke-width="13" stroke-linecap="round"/>
    <circle cx="256" cy="244" r="32" fill="#C9162F"/>
    <circle cx="242" cy="231" r="10" fill="#FFB4BF" opacity="0.82"/>
    <path d="M209 294C237 322 275 322 303 294" fill="none" stroke="#67111D" stroke-width="15" stroke-linecap="round"/>
    <path d="M227 288C245 301 267 301 285 288" fill="none" stroke="#FFF7ED" stroke-width="9" stroke-linecap="round"/>
  </g>
</svg>